<svg width="116" height="112" viewBox="0 0 116 112" fill="none" xmlns="http://www.w3.org/2000/svg">
<path d="M0 110.8L9.75 82.54H19.4L29.17 110.8H21.51L20.08 105.74H9.14L7.67 110.8H0.00999832H0ZM10.79 100.24H18.45L15.57 90.92C15.51 90.75 15.38 90.29 15.2 89.53C14.98 88.64 14.78 87.84 14.6 87.12C14.42 87.78 14.27 88.44 14.14 89.11C13.93 89.75 13.76 90.36 13.62 90.92L10.78 100.24H10.79Z" fill="#232D52"/>
<path d="M31.8604 110.8V82.54H37.7504C42.2004 82.54 45.3104 82.75 47.0704 83.16C48.9004 83.57 50.4904 84.26 51.8604 85.23C53.6604 86.47 55.0204 88.06 55.9304 90.02C56.8604 91.99 57.3204 94.21 57.3204 96.7C57.3204 99.19 56.8604 101.41 55.9304 103.38C55.0204 105.31 53.6604 106.91 51.8604 108.17C50.4404 109.14 48.8903 109.8 47.1903 110.18C45.4903 110.6 42.7804 110.82 39.0504 110.82H31.8704L31.8604 110.8ZM39.4904 104.47H40.7804C43.8204 104.47 46.0203 103.84 47.4003 102.58C48.7903 101.35 49.4804 99.39 49.4804 96.7C49.4804 94.01 48.7903 92.05 47.4003 90.78C46.0103 89.51 43.8004 88.87 40.7804 88.87H39.4904V104.46V104.47Z" fill="#232D52"/>
<path d="M58.8301 110.8L68.5801 82.54H78.2301L88.0001 110.8H80.3401L78.9101 105.74H67.9701L66.5001 110.8H58.8401H58.8301ZM69.6201 100.24H77.2801L74.4001 90.92C74.3401 90.75 74.2101 90.29 74.0301 89.53C73.8101 88.64 73.6101 87.84 73.4301 87.12C73.2501 87.78 73.1001 88.44 72.9701 89.11C72.7601 89.75 72.5901 90.36 72.4501 90.92L69.6101 100.24H69.6201Z" fill="#232D52"/>
<path d="M90.5002 82.54H98.2002V96.28C98.2002 98.38 98.2502 99.83 98.3502 100.64C98.4802 101.61 98.6502 102.34 98.8702 102.84C99.1402 103.57 99.6502 104.11 100.39 104.46C101.14 104.86 102.04 105.06 103.09 105.06C104.14 105.06 105.03 104.86 105.77 104.46C106.45 104.13 106.97 103.59 107.31 102.84C107.52 102.33 107.68 101.59 107.81 100.64C107.93 99.87 107.98 98.41 107.98 96.28V82.54H115.64V97.48C115.64 100.54 115.45 102.82 115.08 104.31C114.73 105.79 114.1 107.06 113.19 108.11C112.19 109.28 110.85 110.14 109.19 110.68C107.54 111.26 105.5 111.55 103.07 111.55C100.64 111.55 98.5402 111.26 96.9302 110.68C95.3002 110.14 93.9702 109.28 92.9402 108.11C92.0502 107.08 91.4302 105.81 91.0502 104.31C90.6502 102.79 90.4502 100.51 90.4502 97.48V82.54H90.5002Z" fill="#232D52"/>
<path d="M11.0303 69.7597V34.8797L56.1203 10.2197V69.7597H11.0303Z" fill="#232D52"/>
<path d="M115.67 34.88C115.67 54.14 100.05 69.76 80.7899 69.76V34.88L56.1299 10.22C62.4399 3.91 71.1599 0 80.7899 0C100.05 0 115.67 15.62 115.67 34.88Z" fill="#232D52"/>
</svg>
